HIERARCHY
ROOT Hips
{
  OFFSET -21.6994 31.6921 0
  CHANNELS 6 Xposition Yposition Zposition Zrotation Xrotation Yrotation
  JOINT Bip01_Pelvis
  {
    OFFSET 0 0 0
    CHANNELS 6 Xposition Yposition Zposition Zrotation Xrotation Yrotation
    JOINT BN_Tail_01
    {
      OFFSET -7.25226 -1.74978 0
      CHANNELS 6 Xposition Yposition Zposition Zrotation Xrotation Yrotation
      JOINT BN_Tail_02
      {
        OFFSET 15.788 0 0
        CHANNELS 6 Xposition Yposition Zposition Zrotation Xrotation Yrotation
        JOINT BN_Tail_03
        {
          OFFSET 16.0015 0 0
          CHANNELS 6 Xposition Yposition Zposition Zrotation Xrotation Yrotation
          JOINT BN_Tail_04
          {
            OFFSET 16.1689 0 0
            CHANNELS 6 Xposition Yposition Zposition Zrotation Xrotation Yrotation
            End Site
            {
              OFFSET 0 0 0
            }
          }
        }
      }
    }
    JOINT Bip01_Spine
    {
      OFFSET 6.38383 2.70859 0.585432
      CHANNELS 6 Xposition Yposition Zposition Zrotation Xrotation Yrotation
      JOINT BN_Mane_02
      {
        OFFSET 6.12662 8.45826 0
        CHANNELS 6 Xposition Yposition Zposition Zrotation Xrotation Yrotation
        End Site
        {
          OFFSET 0 0 0
        }
      }
      JOINT Bip01_R_Thigh
      {
        OFFSET -7.04074 -2.18223 -5.47025
        CHANNELS 6 Xposition Yposition Zposition Zrotation Xrotation Yrotation
        JOINT Bip01_R_Calf
        {
          OFFSET 13.6591 0 0
          CHANNELS 6 Xposition Yposition Zposition Zrotation Xrotation Yrotation
          JOINT Bip01_R_HorseLink
          {
            OFFSET 9.07516 0 0
            CHANNELS 6 Xposition Yposition Zposition Zrotation Xrotation Yrotation
            JOINT Bip01_R_Foot
            {
              OFFSET 8.13856 0 0
              CHANNELS 6 Xposition Yposition Zposition Zrotation Xrotation Yrotation
              JOINT Bip01_R_Toe0
              {
                OFFSET 3.79737 6.30086 0
                CHANNELS 6 Xposition Yposition Zposition Zrotation Xrotation Yrotation
                JOINT Bip01_R_Toe0Nub
                {
                  OFFSET 0.838764 0 0
                  CHANNELS 6 Xposition Yposition Zposition Zrotation Xrotation Yrotation
                  End Site
                  {
                    OFFSET 0 0 0
                  }
                }
              }
            }
          }
        }
      }
      JOINT Bip01_L_Thigh
      {
        OFFSET -6.18667 -2.14873 5.3508
        CHANNELS 6 Xposition Yposition Zposition Zrotation Xrotation Yrotation
        JOINT Bip01_L_Calf
        {
          OFFSET 13.6591 0 0
          CHANNELS 6 Xposition Yposition Zposition Zrotation Xrotation Yrotation
          JOINT Bip01_L_HorseLink
          {
            OFFSET 9.07515 0 0
            CHANNELS 6 Xposition Yposition Zposition Zrotation Xrotation Yrotation
            JOINT Bip01_L_Foot
            {
              OFFSET 8.13856 0 0
              CHANNELS 6 Xposition Yposition Zposition Zrotation Xrotation Yrotation
              JOINT Bip01_L_Toe0
              {
                OFFSET 3.79737 6.30086 0
                CHANNELS 6 Xposition Yposition Zposition Zrotation Xrotation Yrotation
                JOINT Bip01_L_Toe0Nub
                {
                  OFFSET 0.838764 0 0
                  CHANNELS 6 Xposition Yposition Zposition Zrotation Xrotation Yrotation
                  End Site
                  {
                    OFFSET 0 0 0
                  }
                }
              }
            }
          }
        }
      }
      JOINT Bip01_Spine1
      {
        OFFSET 12.1687 -0.0105438 0
        CHANNELS 6 Xposition Yposition Zposition Zrotation Xrotation Yrotation
        JOINT BN_Mane_R_01
        {
          OFFSET -0.157498 5.09008 -6.54008
          CHANNELS 6 Xposition Yposition Zposition Zrotation Xrotation Yrotation
          End Site
          {
            OFFSET 0 0 0
          }
        }
        JOINT BN_Mane_R_02
        {
          OFFSET -0.1575 5.09007 6.54
          CHANNELS 6 Xposition Yposition Zposition Zrotation Xrotation Yrotation
          End Site
          {
            OFFSET 0 0 0
          }
        }
        JOINT BN_Mane_01
        {
          OFFSET 8.29709 8.50414 0
          CHANNELS 6 Xposition Yposition Zposition Zrotation Xrotation Yrotation
          End Site
          {
            OFFSET 0 0 0
          }
        }
        JOINT Bip01_Spine2
        {
          OFFSET 13.2802 -0.0100708 1.51992e-005
          CHANNELS 6 Xposition Yposition Zposition Zrotation Xrotation Yrotation
          JOINT Bip01_Neck
          {
            OFFSET 12.4891 -6.66662 0
            CHANNELS 6 Xposition Yposition Zposition Zrotation Xrotation Yrotation
            JOINT Bip01_R_Clavicle
            {
              OFFSET -7.4542 -2.82621 -1.17874
              CHANNELS 6 Xposition Yposition Zposition Zrotation Xrotation Yrotation
              JOINT Bip01_R_UpperArm
              {
                OFFSET 13.2557 0 0
                CHANNELS 6 Xposition Yposition Zposition Zrotation Xrotation Yrotation
                JOINT Bip01_R_Forearm
                {
                  OFFSET 12.8897 0 0
                  CHANNELS 6 Xposition Yposition Zposition Zrotation Xrotation Yrotation
                  JOINT Bip01_R_Hand
                  {
                    OFFSET 11.2622 0 0
                    CHANNELS 6 Xposition Yposition Zposition Zrotation Xrotation Yrotation
                    JOINT Bip01_R_Finger0
                    {
                      OFFSET 3.98015 -0.208661 -0.0949803
                      CHANNELS 6 Xposition Yposition Zposition Zrotation Xrotation Yrotation
                      JOINT Bip01_R_Finger0Nub
                      {
                        OFFSET 6.57561 0 0
                        CHANNELS 6 Xposition Yposition Zposition Zrotation Xrotation Yrotation
                        End Site
                        {
                          OFFSET 0 0 0
                        }
                      }
                    }
                  }
                }
              }
            }
            JOINT Bip01_L_Clavicle
            {
              OFFSET -7.4541 -2.82679 1.17708
              CHANNELS 6 Xposition Yposition Zposition Zrotation Xrotation Yrotation
              JOINT Bip01_L_UpperArm
              {
                OFFSET 13.2558 0 0
                CHANNELS 6 Xposition Yposition Zposition Zrotation Xrotation Yrotation
                JOINT Bip01_L_Forearm
                {
                  OFFSET 12.8897 0 0
                  CHANNELS 6 Xposition Yposition Zposition Zrotation Xrotation Yrotation
                  JOINT Bip01_L_Hand
                  {
                    OFFSET 11.2622 0 0
                    CHANNELS 6 Xposition Yposition Zposition Zrotation Xrotation Yrotation
                    JOINT Bip01_L_Finger0
                    {
                      OFFSET 3.98014 -0.20866 0.0949764
                      CHANNELS 6 Xposition Yposition Zposition Zrotation Xrotation Yrotation
                      JOINT Bip01_L_Finger0Nub
                      {
                        OFFSET 6.57562 0 0
                        CHANNELS 6 Xposition Yposition Zposition Zrotation Xrotation Yrotation
                        End Site
                        {
                          OFFSET 0 0 0
                        }
                      }
                    }
                  }
                }
              }
            }
            JOINT Bip01_Neck1
            {
              OFFSET 4.19352 -0.00332451 0
              CHANNELS 6 Xposition Yposition Zposition Zrotation Xrotation Yrotation
              JOINT Bip01_Head
              {
                OFFSET 4.17604 0.298252 0
                CHANNELS 6 Xposition Yposition Zposition Zrotation Xrotation Yrotation
                JOINT BN_Eye_R_01
                {
                  OFFSET 6.53258 -3.90694 -2.55361
                  CHANNELS 6 Xposition Yposition Zposition Zrotation Xrotation Yrotation
                  End Site
                  {
                    OFFSET 0 0 0
                  }
                }
                JOINT BN_Eye_L_01
                {
                  OFFSET 6.5326 -3.90694 2.55371
                  CHANNELS 6 Xposition Yposition Zposition Zrotation Xrotation Yrotation
                  End Site
                  {
                    OFFSET 0 0 0
                  }
                }
                JOINT BN_Ear_R_01
                {
                  OFFSET 1.75934 -4.1584 -4.45634
                  CHANNELS 6 Xposition Yposition Zposition Zrotation Xrotation Yrotation
                  End Site
                  {
                    OFFSET 0 0 0
                  }
                }
                JOINT BN_Ear_L_01
                {
                  OFFSET 1.75933 -4.15841 4.45616
                  CHANNELS 6 Xposition Yposition Zposition Zrotation Xrotation Yrotation
                  End Site
                  {
                    OFFSET 0 0 0
                  }
                }
                JOINT BN_Beard_L_01
                {
                  OFFSET 11.2964 -1.06183 2.32054
                  CHANNELS 6 Xposition Yposition Zposition Zrotation Xrotation Yrotation
                  End Site
                  {
                    OFFSET 0 0 0
                  }
                }
                JOINT BN_Beard_R_01
                {
                  OFFSET 11.2964 -1.06182 -2.32036
                  CHANNELS 6 Xposition Yposition Zposition Zrotation Xrotation Yrotation
                  End Site
                  {
                    OFFSET 0 0 0
                  }
                }
                JOINT BN_Mouth_0
                {
                  OFFSET 1.3149 1.30001 0
                  CHANNELS 6 Xposition Yposition Zposition Zrotation Xrotation Yrotation
                  End Site
                  {
                    OFFSET 0 0 0
                  }
                }
                JOINT Bip01_HeadNub
                {
                  OFFSET 12.6869 0 0
                  CHANNELS 6 Xposition Yposition Zposition Zrotation Xrotation Yrotation
                  End Site
                  {
                    OFFSET 0 0 0
                  }
                }
              }
            }
          }
        }
      }
    }
  }
}
MOTION
Frames:	4
Frame Time:	0.0333333
-21.6994 27.9295 0 -180 -90 -90 0 1.13687e-013 0 -89.9974 1.65211 -89.998 -7.25225 -1.74978 2.91038e-011 -29.129 10.7053 175.79 15.788 3.8147e-006 -9.53674e-007 -41.2179 20.3668 12.9498 16.0015 0 1.77636e-015 -42.0231 -3.58054 28.6145 16.1689 -3.8147e-006 0 -36.0002 -0.229429 30.8263 6.33188 2.8942 -0.0012954 21.992 -2.06124e-012 -9.22341e-012 6.12663 8.45826 5.82077e-011 -88.9944 -0.0321808 -179.967 -6.95703 -0.310308 -5.42738 -90.5723 0.999452 173.787 13.6591 -5.72205e-006 -8.88178e-016 -41.5484 7.32904e-006 6.17834e-006 9.07515 1.90735e-006 0 35.8068 1.31162e-006 -4.84049e-007 8.13856 -3.8147e-006 8.88178e-016 26.3825 3.07596 5.43334 3.79737 6.30086 1.77636e-015 89.9467 1.15525e-009 1.47853e-009 0.838761 0 0 -2.5066e-008 3.09094e-010 -1.86195e-009 -6.95664 -0.310598 5.42738 -141.705 -2.3255 -176.826 13.6591 4.76837e-007 0 -90.011 -1.00379e-005 9.60298e-006 9.07516 1.90735e-006 -8.88178e-016 61.8399 4.93344e-006 -9.0433e-006 8.13855 1.90735e-006 0 -3.11 -12.8571 -4.00196 3.79737 6.30085 3.55271e-015 89.9995 6.76527e-005 -12.4979 0.838762 2.23517e-008 1.77636e-015 -179.96 0.000153812 -0.000136998 12.1681 -0.0104828 1.0842e-019 -7.77667 -2.00048e-011 4.49608e-011 -0.1575 5.09007 -6.54008 -92.7406 -0.022027 -167.965 -0.157502 5.09006 6.54 87.255 -0.000390274 12.0139 8.29709 8.50413 -1.0842e-019 -91.651 -0.0231628 -179.978 13.2792 -0.00985909 5.82077e-011 -14.6228 9.69355e-006 2.52921e-006 12.4883 -6.66643 -5.82077e-011 -19.6204 -1.96619e-005 3.62624e-006 -6.45437 -4.6782 -1.17794 -160.428 -52.226 111.902 13.2557 0 1.90735e-006 135.848 80.8846 -165.125 12.8897 -1.90735e-006 -3.55271e-015 -65.188 -6.7255e-006 -1.55097e-005 11.2622 0 0 -94.1697 72.8762 125.921 3.98015 -0.208662 -0.0949803 2.06106 8.51484 -35.8328 6.57561 -8.34464e-007 -1.19209e-007 179.96 1.73014e-005 -2.00428e-006 -6.45361 -4.67821 1.17789 -160.44 55.331 -93.644 13.2558 3.55271e-015 -9.53674e-007 69.3212 -12.879 93.6778 12.8897 -9.53674e-007 1.77636e-015 -121.349 2.1986e-006 -4.9037e-007 11.2623 1.77636e-015 0 -29.8448 -84.2968 -50.9449 3.98015 -0.208655 0.0949755 14.2321 -11.4819 62.2536 6.57563 0 -1.19209e-007 -2.65667e-009 -8.69432e-009 -1.96422e-009 4.19499 -0.00312996 -2.1684e-019 20.5971 9.37742e-006 -3.524e-006 4.17604 0.298254 -5.82077e-011 4.32702 -6.91232e-011 -2.6513e-011 6.53258 -3.90694 -2.55361 133.025 18.1401 163.594 6.5326 -3.90696 2.55371 -46.976 18.1112 -16.4184 1.75934 -4.1584 -4.45634 24.7931 -39.7306 142.462 1.75933 -4.15841 4.45617 -155.196 -39.7317 -37.5282 11.2964 -1.06184 2.32054 151.279 -2.12726 -89.9983 11.2964 -1.06183 -2.32036 -28.7077 -2.13817 89.9962 1.31489 1.30001 -4.33681e-019 -142.031 -0.0336456 -179.988 12.6869 -1.90735e-006 1.16415e-010 -5.3724e-008 -4.37516e-011 2.91694e-011 
-21.6303 27.8997 0.0312327 -180 -90 -90 0 1.13687e-013 0 -90.0128 2.02622 -90.3217 -7.25225 -1.74978 2.91044e-011 -28.9922 10.2314 175.983 15.788 3.8147e-006 -9.53674e-007 -41.4621 20.6848 12.1176 16.0015 -3.55271e-015 8.88178e-016 -42.392 -3.43499 28.5506 16.1689 -3.8147e-006 0 -36.2512 -0.438794 33.0306 6.31135 2.93558 -0.0360293 22.4021 0.13764 0.293283 6.12663 8.45826 4.87475e-011 -88.9944 -0.0321808 -179.967 -6.92886 -0.321609 -5.4272 -90.2207 0.944309 173.845 13.6591 -5.72205e-006 2.66454e-015 -41.1221 7.3616e-006 6.1188e-006 9.07515 1.90735e-006 -1.77636e-015 35.6838 1.32283e-006 -4.85842e-007 8.13856 -3.8147e-006 -2.66454e-015 26.4508 3.03776 5.37941 3.79737 6.30086 -1.46549e-012 89.9784 1.35255e-009 1.49258e-009 0.838761 1.32672e-014 -3.55271e-015 -2.5066e-008 3.09094e-010 -1.86195e-009 -6.98425 -0.291813 5.42717 -141.727 -2.46961 -176.724 13.6591 4.76837e-007 3.55271e-015 -90.2668 -1.0091e-005 9.551e-006 9.07516 1.90735e-006 -1.77636e-015 61.9999 4.90612e-006 -9.06614e-006 8.13855 1.90735e-006 1.77636e-015 -3.03185 -12.8582 -4.09628 3.79737 6.30085 -2.85796e-010 90.0412 -0.000742621 -12.4979 0.838762 2.23518e-008 0 -179.96 0.000153812 -0.000136998 12.1681 -0.0104828 1.17198e-014 -7.7267 -4.11146e-011 3.62836e-011 -0.1575 5.09007 -6.54008 -92.7406 -0.0220269 -167.965 -0.157502 5.09006 6.54 87.255 -0.000390274 12.0139 8.29709 8.50413 -6.29365e-012 -91.651 -0.0231781 -179.978 13.2792 -0.00985909 5.8215e-011 -14.733 0.0018206 -0.00688404 12.4883 -6.66643 -5.87768e-011 -19.6274 -1.96628e-005 3.62385e-006 -6.45437 -4.67791 -1.17794 -160.433 -52.2709 111.847 13.2557 -3.55271e-015 1.90735e-006 133.977 80.8717 -163.296 12.8897 -1.90735e-006 7.10543e-015 -65.895 -1.56817e-005 -1.15223e-005 11.2622 1.15463e-014 0 -93.7391 72.8147 125.804 3.98015 -0.208662 -0.0949803 2.03588 8.49959 -35.7512 6.57561 -8.34464e-007 -1.19209e-007 179.96 1.73014e-005 -2.00429e-006 -6.454 -4.67792 1.17789 -160.44 55.331 -93.644 13.2558 7.10543e-015 -9.53674e-007 69.4607 -12.4395 93.5688 12.8897 -9.53674e-007 1.77636e-015 -121.444 2.67438e-006 -2.03494e-007 11.2623 -1.77636e-015 0 -30.9194 -84.5158 -51.5795 3.98015 -0.208655 0.0949755 14.2267 -11.4766 62.1302 6.57563 -5.32907e-015 -1.19209e-007 -2.65667e-009 -8.69432e-009 -1.96422e-009 4.19499 -0.00312996 -2.67911e-014 20.1696 0.000222501 0.000576676 4.17604 0.298254 -5.8285e-011 4.72252 -0.0495013 0.00204335 6.53258 -3.90694 -2.55361 133.025 18.1401 163.594 6.5326 -3.90696 2.55371 -46.976 18.1112 -16.4184 1.75934 -4.1584 -4.45634 24.8034 -39.9482 142.673 1.75933 -4.15841 4.45617 -155.184 -39.9515 -37.3154 11.2964 -1.06184 2.32054 151.275 -2.66291 -89.8959 11.2964 -1.06183 -2.32036 -28.7092 -1.68883 90.0479 1.31489 1.30001 -2.46093e-012 -141.909 -0.0380097 -179.976 12.6869 -1.90735e-006 1.16415e-010 -5.3724e-008 -4.37517e-011 2.91694e-011 
-21.5583 27.8648 0.0641553 -180 -90 -90 0 1.13687e-013 0 -90.0552 2.40214 -90.6555 -7.25225 -1.74978 2.91042e-011 -28.8373 9.72739 176.182 15.788 3.8147e-006 -9.53674e-007 -41.7473 21.1218 11.32 16.0015 7.10543e-015 -8.88178e-016 -42.8353 -3.17978 28.2295 16.1689 -3.8147e-006 0 -36.4892 -0.653112 35.1913 6.29122 2.97614 -0.0700913 22.8072 0.310969 0.586585 6.12663 8.45826 6.40038e-011 -88.9944 -0.0321808 -179.967 -6.90123 -0.332691 -5.42702 -89.8819 0.912632 173.88 13.6591 -5.72205e-006 2.66454e-015 -40.7192 7.39155e-006 6.06146e-006 9.07515 1.90735e-006 8.88178e-016 35.5056 1.33529e-006 -4.86286e-007 8.13856 -3.8147e-006 -2.66454e-015 26.5638 2.99571 5.32695 3.79737 6.30086 -6.37517e-011 90.0094 2.82324e-009 2.05959e-009 0.838761 3.66374e-015 5.32907e-015 -2.5066e-008 3.09094e-010 -1.86195e-009 -7.01133 -0.273395 5.42696 -141.805 -2.48476 -176.667 13.6591 4.76837e-007 4.44089e-015 -90.5863 -1.01407e-005 9.49239e-006 9.07516 1.90735e-006 -2.66454e-015 62.0969 4.88009e-006 -9.07146e-006 8.13855 1.90735e-006 -1.77636e-015 -2.95524 -12.8595 -4.18877 3.79737 6.30085 -1.61089e-010 90.0821 -0.00153713 -12.4979 0.838762 2.23517e-008 0 -179.96 0.000153812 -0.000136998 12.1681 -0.0104828 -7.16094e-015 -7.63646 -2.96701e-011 5.00245e-011 -0.1575 5.09007 -6.54008 -92.7406 -0.0220269 -167.965 -0.157502 5.09006 6.54 87.255 -0.000390274 12.0139 8.29709 8.50413 7.22679e-012 -91.651 -0.0231781 -179.978 13.2792 -0.00985909 5.81993e-011 -14.8238 0.0062212 -0.0234675 12.4883 -6.66643 -5.52296e-011 -19.6168 -1.96631e-005 3.62745e-006 -6.45438 -4.67762 -1.17794 -160.437 -52.2734 111.84 13.2557 -3.55271e-015 1.90735e-006 132.028 80.797 -161.41 12.8897 -1.90735e-006 -5.32907e-015 -66.7347 -1.5515e-005 -1.17746e-005 11.2622 8.88178e-015 5.32907e-015 -93.2564 72.7476 125.68 3.98015 -0.208662 -0.0949803 2.01123 8.48456 -35.6712 6.57561 -8.34464e-007 -1.19209e-007 179.96 1.73014e-005 -2.00429e-006 -6.45437 -4.67763 1.17789 -160.44 55.331 -93.644 13.2558 3.55271e-015 -9.53674e-007 69.6159 -11.9997 93.4584 12.8897 -9.53674e-007 -7.10543e-015 -121.607 2.70865e-006 -1.85589e-007 11.2623 8.88178e-015 -5.32907e-015 -32.3763 -84.759 -52.5262 3.98015 -0.208655 0.0949755 14.2167 -11.4711 61.9359 6.57563 8.88178e-015 -1.19209e-007 -2.65667e-009 -8.69432e-009 -1.96422e-009 4.19499 -0.00312996 -7.39686e-014 19.6985 0.000412819 0.00112333 4.17604 0.298254 -5.84102e-011 5.07605 -0.108306 0.00480308 6.53258 -3.90694 -2.55361 133.025 18.1401 163.594 6.5326 -3.90696 2.55371 -46.976 18.1112 -16.4184 1.75934 -4.1584 -4.45634 24.8145 -40.1615 142.881 1.75933 -4.15841 4.45617 -155.172 -40.167 -37.1061 11.2964 -1.06184 2.32054 151.272 -3.18819 -89.7951 11.2964 -1.06183 -2.32036 -28.7112 -1.24795 90.0982 1.31489 1.30001 -8.64513e-012 -141.788 -0.0422516 -179.964 12.6869 -1.90735e-006 1.16415e-010 -5.3724e-008 -4.37516e-011 2.91694e-011 
-21.4856 27.8296 0.0974039 -180 -90 -90 0 1.13687e-013 0 -90.1223 2.79239 -91.0117 -7.25225 -1.74978 2.91036e-011 -28.662 9.18581 176.393 15.788 3.8147e-006 -9.53674e-007 -42.0647 21.6765 10.5246 16.0015 -1.77636e-015 -2.66454e-015 -43.3452 -2.82814 27.6688 16.1689 -3.8147e-006 -3.55271e-015 -36.8237 -0.960441 36.6826 6.2704 3.01924 -0.105446 23.2194 0.517676 0.886184 6.12663 8.45826 3.53249e-011 -88.9944 -0.0321808 -179.967 -6.86998 -0.348266 -5.42709 -89.5554 0.824369 173.974 13.6591 -5.72205e-006 3.55271e-015 -40.3278 7.42114e-006 6.00877e-006 9.07515 1.90735e-006 8.88178e-016 35.2743 1.34496e-006 -4.87526e-007 8.13856 -3.8147e-006 -2.66454e-015 26.7302 2.95044 5.27393 3.79737 6.30086 2.57039e-011 90.0407 1.1566e-009 1.2469e-009 0.838761 1.21569e-014 3.55271e-015 -2.5066e-008 3.09094e-010 -1.86195e-009 -7.04096 -0.250047 5.42633 -141.93 -2.54799 -176.593 13.6591 4.76837e-007 1.77636e-015 -90.9797 -1.02058e-005 9.41874e-006 9.07516 1.90735e-006 -3.55271e-015 62.15 4.86103e-006 -9.07614e-006 8.13855 1.90735e-006 1.77636e-015 -2.8096 -12.8651 -4.29922 3.79737 6.30085 -1.27358e-010 90.1723 -0.000857703 -12.498 0.838762 2.23517e-008 3.55271e-015 -179.96 0.000153812 -0.000136998 12.1681 -0.0104828 2.84078e-014 -7.50678 -7.63063e-011 2.44281e-011 -0.1575 5.09007 -6.54008 -92.7406 -0.0220269 -167.965 -0.157502 5.09006 6.54 87.255 -0.000390274 12.0139 8.29709 8.50413 -1.44222e-011 -91.651 -0.0231781 -179.977 13.2792 -0.00985909 5.82245e-011 -14.8944 0.0115942 -0.0435524 12.4883 -6.66643 -4.1595e-011 -19.5956 -1.96632e-005 3.63472e-006 -6.45666 -4.67473 -1.17794 -160.456 -52.2439 111.873 13.2557 -1.06581e-014 1.90735e-006 129.974 80.667 -159.445 12.8897 -1.90735e-006 0 -67.7089 -6.9029e-006 -1.55119e-005 11.2622 3.55271e-015 -1.77636e-015 -92.7043 72.6679 125.538 3.98015 -0.208662 -0.0949803 1.96911 8.45905 -35.5328 6.57561 -8.34464e-007 -1.19209e-007 179.96 1.73014e-005 -2.0043e-006 -6.45666 -4.67473 1.17789 -160.468 55.3287 -93.6444 13.2558 1.06581e-014 -9.53674e-007 69.7866 -11.5612 93.3392 12.8897 -9.53674e-007 0 -121.83 2.47045e-006 -3.35648e-007 11.2623 8.88178e-015 1.77636e-015 -34.3023 -85.0262 -53.8747 3.98015 -0.208655 0.0949755 14.205 -11.4608 61.669 6.57563 0 -1.19209e-007 -2.65667e-009 -8.69432e-009 -1.96422e-009 4.19499 -0.00312996 -1.50643e-013 19.1663 0.00190635 0.00545416 4.17604 0.298254 -5.85504e-011 5.40168 -0.174005 0.0222132 6.53258 -3.90694 -2.55361 133.025 18.1401 163.594 6.5326 -3.90696 2.55371 -46.976 18.1112 -16.4184 1.75934 -4.1584 -4.45634 24.8268 -40.377 143.092 1.75933 -4.15841 4.45617 -155.158 -40.3846 -36.894 11.2964 -1.06184 2.32054 151.27 -3.7185 -89.6935 11.2964 -1.06183 -2.32036 -28.7134 -0.803353 90.1493 1.31489 1.30001 -9.79489e-012 -141.666 -0.0464935 -179.952 12.6869 -1.90735e-006 1.16415e-010 -5.3724e-008 -4.37516e-011 2.91694e-011 
